<?xml version="1.0" encoding="iso-8859-1"?>
<!-- Generator: Adobe Illustrator 19.0.0, SVG Export Plug-In . SVG Version: 6.00 Build 0)  -->
<svg version="1.1" id="Layer_1" xmlns="http://www.w3.org/2000/svg" xmlns:xlink="http://www.w3.org/1999/xlink" x="0px" y="0px"
	 viewBox="0 0 512 512" style="enable-background:new 0 0 512 512;" xml:space="preserve">
<circle style="fill:#5E9CEA;" cx="256" cy="259" r="249.5"/>
<g>
	<polygon style="fill:#9ED36A;" points="465,136 432,81 348,27 305,54 248,78 214,113 219,131 234,131 281,131 326.5,141 
		356.875,149.844 340,175 313,187 269,166 219,166 188,186 165,225 165,263 180,298 229,308 265,311 280,326 292,376 303,442 
		323,455 360,439 400,394 413,351 447,281 455,247 418,241 393,223 393,197.5 461,209 466,194 488,186 	"/>
	<polygon style="fill:#9ED36A;" points="69,308 39,267 13,230 13,284 27,346 52,389 70,405 91,380 91,341 	"/>
</g>
<path d="M256,0C114.609,0,0,114.617,0,256c0,141.391,114.609,256,256,256c141.375,0,256-114.609,256-256
	C512,114.617,397.375,0,256,0z M472.219,164.664c1.734,4.078,3.328,8.203,4.813,12.352c-5.172,3.07-9.875,6.133-13.469,8.758
	c-6.344,4.641-10.406,8.594-11.094,13.969c-0.109,0.773-0.25,1.203-0.328,1.398c-0.328,0.133-1.234,0.391-3.141,0.391
	c-5.563,0-13.703-2.18-21.578-4.289c-8.938-2.391-18.188-4.867-26.125-4.867c-10.625,0-16.219,4.578-19.047,8.422
	c-4.609,6.273-4.703,15.266-0.266,24.039c7.156,14.125,27.141,29.211,61.797,29.211c0.422,0,0.828,0,1.234,0
	c-1.344,3.914-3.859,10.031-8.609,19.391c-6.266,12.344-13.906,25.422-18.953,34.094c-1.016,1.75-1.938,3.328-2.719,4.672
	c-7.547,13.078-10.141,26.797-12.625,40.063c-2.172,11.547-4.234,22.453-9.453,32c-4.547,8.281-11.516,15.438-18.906,23.016
	c-3.734,3.828-7.578,7.766-11.172,11.953c-13.297,15.438-23.703,24.375-37.609,24.375c-0.016,0-0.016,0-0.016,0
	c-0.922,0-1.875-0.031-2.828-0.125c-7.281-0.625-11.469-11.438-13.688-20.406c-3.141-12.641-4.125-25.594-5.188-39.313
	c-1.156-15.219-2.359-30.969-6.703-46.672c-4.656-16.828-14.406-28.125-28.969-33.609c-12.219-4.578-26.391-4.578-38.922-4.578
	h-0.766h-0.766c-2.234,0-4.469,0-6.703-0.031c-28.031-0.313-44.719-16.906-45.797-45.516c-0.953-25.477,5.406-45.5,18.891-59.508
	c15.703-16.305,37.016-19.977,43.234-19.977c0.219,0,0.344,0.008,0.438,0.008l2.422,0.438c27.797,4.961,44.047,8.672,48.313,11.016
	c8.344,4.617,17.266,6.953,26.5,6.953c15.375,0,30.938-6.891,39.672-17.547c4.906-5.992,6.953-12.578,5.766-18.563
	c-1.688-8.453-10.672-13.383-19.219-17.086c-7.531-3.266-17.516-6.602-29.672-9.93c-21.703-5.938-46.656-10.797-60.688-11.805
	c-0.625-0.047-1.281-0.063-1.938-0.063c-3.906,0-8.063,0.742-12.453,1.539c-3.969,0.711-8.063,1.445-11.219,1.445
	c-0.813,0-1.406-0.047-1.813-0.109c0.25-1.453,1.359-4.281,3.781-7.469c18.766-24.727,47.047-35.938,77-47.805
	c11.281-4.469,22.953-9.102,34.078-14.508c1.828-0.891,3.125-1.523,9.516-10.664c0.031,0.016,0.063,0.023,0.094,0.039
	c27.938,11.82,53.047,28.742,74.594,50.297C443.484,111.625,460.406,136.719,472.219,164.664z M21.344,257.25
	c3.563,5.25,6.828,10.109,9.563,14.203c3.953,5.875,6.797,10.125,8.469,12.438c3.719,5.188,7.594,10.297,11.344,15.234
	c4.922,6.484,9.563,12.609,13.844,18.828c7.328,10.656,12.375,20.031,15.438,28.688c3.328,9.438,4.031,17.563,2.109,24.125
	c-1.5,5.094-5.172,10.219-10.938,15.234c-1.109,0.766-3.703,2.484-7.313,4.797c-9.531-13.547-17.594-28.063-24.109-43.469
	C27.688,318.797,21.5,288.484,21.344,257.25z M472.219,347.328c-11.813,27.953-28.734,53.047-50.297,74.609
	c-21.547,21.547-46.656,38.484-74.594,50.297c-28.922,12.234-59.641,18.438-91.328,18.438c-31.703,0-62.422-6.203-91.344-18.438
	c-27.938-11.813-53.047-28.75-74.594-50.297c-4.578-4.578-8.938-9.328-13.094-14.203c4.094-2.656,6.969-4.578,7.438-4.969
	c8.203-6.984,15.094-15.5,18.172-25.969c7.172-24.406-6.938-51.313-20.438-70.938c-8.016-11.641-17.188-22.922-25.438-34.406
	c-4.016-5.594-18.328-27.602-33.078-48.414c2.813-20.063,8.188-39.602,16.125-58.375c11.828-27.945,28.75-53.039,50.313-74.602
	c21.547-21.555,46.656-38.477,74.594-50.297c28.922-12.234,59.641-18.43,91.344-18.43c24.156,0,47.766,3.617,70.438,10.75
	c-0.031,0.031-0.063,0.07-0.078,0.102c-9.828,4.656-20.359,8.836-30.578,12.883C264.422,57.492,232,70.344,209.641,99.813
	c-9.719,12.813-10.844,26.195-2.922,34.914c4.156,4.57,10.188,6.891,17.953,6.891c5.063,0,10.344-0.953,15-1.789
	c3.281-0.594,6.672-1.203,8.672-1.203c0.141,0,0.281,0.008,0.406,0.016c11.453,0.82,32.813,4.875,51.938,9.859
	c21.016,5.469,32.156,10.094,36.906,12.789c-3.188,3.797-11.75,9.664-23.172,9.664c-5.578,0-11.031-1.445-16.203-4.289
	c-7.875-4.352-27.625-8.484-54.859-13.344l-2.625-0.477c-1.141-0.203-2.438-0.305-3.984-0.305c-11.438,0-38.406,5.539-58.594,26.516
	c-17.672,18.336-26.031,43.609-24.844,75.109c0.719,19.383,7.297,35.805,19,47.523c11.891,11.891,28.438,18.297,47.859,18.516
	c2.328,0.031,4.641,0.031,6.953,0.031h1.531c26.25,0,41.375,1.063,47.328,22.547c3.781,13.703,4.859,27.75,6,42.609
	c1.078,14,2.188,28.453,5.75,42.828c7.063,28.484,21.609,35.578,32.563,36.516c1.563,0.141,3.125,0.219,4.656,0.219c0,0,0,0,0.016,0
	c24.375,0,40.531-16.438,53.781-31.813c3.156-3.672,6.609-7.219,10.266-10.969c8.063-8.266,16.406-16.813,22.359-27.672
	c6.844-12.516,9.313-25.609,11.688-38.297c2.266-12.031,4.406-23.406,10.141-33.328c0.781-1.328,1.672-2.875,2.672-4.594
	c29.063-49.813,36.047-68.266,29.906-78.961c-2.75-4.797-7.844-7.367-13.734-6.93c-2.813,0.219-5.594,0.328-8.266,0.328
	c-24.844,0-36.031-9.234-39.688-13.203c-2.188-2.375-3.234-4.422-3.703-5.781c0.266-0.016,0.563-0.023,0.906-0.023
	c5.141,0,13,2.102,20.609,4.141c9.203,2.469,18.734,5.016,27.094,5.016c12.906,0,21.531-6.328,24.109-17.492
	c1.734-1.523,5.313-4.117,10.359-7.297c4.781,18.797,7.188,38.172,7.188,57.922C490.656,287.688,484.453,318.422,472.219,347.328z"
	/>
<g>
</g>
<g>
</g>
<g>
</g>
<g>
</g>
<g>
</g>
<g>
</g>
<g>
</g>
<g>
</g>
<g>
</g>
<g>
</g>
<g>
</g>
<g>
</g>
<g>
</g>
<g>
</g>
<g>
</g>
</svg>
